<svg width="32" height="32" viewBox="0 0 32 32" fill="none" xmlns="http://www.w3.org/2000/svg">
<path d="M16.75 0.406C10.337 0.406 4 4.681 4 11.6C4 16 6.475 18.5 7.975 18.5C8.594 18.5 8.95 16.775 8.95 16.288C8.95 15.707 7.469 14.469 7.469 12.05C7.469 7.025 11.294 3.462 16.244 3.462C20.5 3.462 23.65 5.881 23.65 10.325C23.65 13.644 22.319 19.869 18.006 19.869C16.45 19.869 15.118 18.744 15.118 17.132C15.118 14.769 16.768 12.482 16.768 10.044C16.768 5.907 10.899 6.657 10.899 11.657C10.899 12.707 11.03 13.869 11.499 14.826C10.636 18.539 8.874 24.07 8.874 27.895C8.874 29.076 9.043 30.239 9.155 31.42C9.367 31.658 9.261 31.633 9.586 31.514C12.736 27.201 12.624 26.358 14.049 20.714C14.818 22.177 16.805 22.964 18.38 22.964C25.017 22.964 27.999 16.495 27.999 10.664C27.999 4.458 22.636 0.408 16.749 0.408L16.75 0.406Z" fill="#2D2D2D"/>
</svg>
